<svg width="621" height="341" viewBox="0 0 621 341" fill="none" xmlns="http://www.w3.org/2000/svg">
<path fill-rule="evenodd" clip-rule="evenodd" d="M539.671 21.7284L542.561 2.11818C542.328 0.532666 541.266 -0.162741 539.373 0.0319339C537.481 0.226609 533.156 3.48791 526.399 9.81594L515.467 18.7863C497.039 33.9597 487.942 42.3389 488.174 43.9244C489.394 52.2484 500.177 55.3639 520.521 53.2712C523.833 52.9305 527.983 48.4801 532.972 39.9198C537.961 31.3595 540.194 25.2957 539.671 21.7284ZM23.7838 323.45C19.7124 320.247 20.3164 315.357 25.5958 308.779C29.9289 302.297 34.2265 298.033 38.4889 295.985C42.7513 293.938 45.0319 292.295 45.3308 291.057C45.6296 289.819 45.2478 288.852 44.1853 288.157C43.1229 287.462 41.911 287.385 40.5497 287.927C25.7496 295.083 15.2369 301.998 9.01136 308.674C2.54497 316.984 -0.441248 322.824 0.0525509 326.193C0.546343 329.562 1.61911 331.966 3.27088 333.406C7.98543 339.358 15.4288 341.812 25.6011 340.765C35.7735 339.719 45.6823 337.694 55.3276 334.69C98.1094 321.84 129.107 303.965 148.324 281.066C161.846 265.19 166.553 251.428 162.444 239.78C161.332 235.469 157.087 231.078 149.707 226.606C142.328 222.134 136.099 218.953 131.019 217.061C125.939 215.17 117.344 212.232 105.234 208.246C93.1234 204.262 84.5283 201.324 79.4483 199.432C67.2798 195.051 60.6873 189.392 59.6707 182.455C58.6541 175.519 60.7273 168.365 65.8905 160.994C78.8319 141.154 98.2989 124.064 124.292 109.721C150.286 95.379 172.509 87.2594 190.961 85.3611L195.219 84.9233C204.441 85.5841 208.865 89.5549 208.491 96.8357C208.117 104.116 205.752 110.093 201.393 114.766C197.035 119.439 195.504 122.916 196.799 125.197C199.04 127.381 201.464 127.534 204.07 125.656C214.081 118.591 220.366 111.507 222.927 104.403C225.489 97.3001 226.391 91.1719 225.636 86.0188C224.881 80.8657 220.444 75.9913 212.326 71.3945C204.209 66.7977 191.161 65.4241 173.181 67.2736C144.793 70.1938 114.609 82.1506 82.626 103.144C50.6432 124.138 34.5937 145.704 34.4769 167.846C30.5338 183.541 20.4897 203.485 4.34443 227.678C2.44352 231.092 3.04319 233.545 6.14336 235.036C9.2436 236.529 12.2173 235.519 15.0645 232.006C27.1174 212.661 35.7585 197.891 40.9882 187.697C45.3458 194.491 54.4346 200.798 68.2549 206.619C69.7905 207.265 76.348 209.407 87.9266 213.045C112.621 220.965 125.607 229.286 126.885 238.007C129.209 253.861 121.908 270.405 104.983 287.636C88.057 304.869 69.8001 317.107 50.2106 324.353C45.6535 326.028 41.1277 327.097 36.6329 327.56C32.1381 328.022 27.8552 326.652 23.7838 323.45ZM409.135 119.047C406.114 98.4349 391.829 89.4434 366.28 92.0716C343.569 94.4077 314.559 109.462 279.248 137.236C243.937 165.01 222.023 190.801 213.506 214.611C209.272 228.325 207.852 239.938 209.246 249.451C210.641 258.964 214.434 266.822 220.625 273.025C236.844 288.658 261.987 294.722 296.052 291.218C335.795 287.13 374.513 267.858 412.207 233.401C424.965 221.821 435.966 209.475 445.21 196.361C453.62 185.505 458.487 178.315 459.808 174.791C448.792 204.491 444.301 226.277 446.335 240.151C446.916 244.115 447.882 247.435 449.236 250.112C457.593 264.542 471.235 270.784 490.161 268.837C498.204 268.009 507.878 265.204 519.184 260.419C538.599 251.985 561.442 232.535 587.714 202.07C603.726 183.524 614.497 168.535 620.025 157.103C620.797 155.816 621.11 154.677 620.966 153.687C620.82 152.696 619.492 151.826 616.981 151.079C614.47 150.331 612.414 151.046 610.812 153.222C599.414 170.489 583.936 188.577 564.375 207.488C544.814 226.4 529.29 239.262 517.802 246.077C506.314 252.891 496.793 253.469 489.24 247.808C484.932 244.63 482.371 240.266 481.558 234.717C480.745 229.167 480.313 224.585 480.263 220.969C479.882 208.535 489.864 178.338 510.21 130.377C512.053 126.566 513.866 122.557 515.651 118.35C515.951 117.112 516.427 115.454 517.083 113.374C517.739 111.295 518.885 108.461 520.52 104.873C522.155 101.285 522.238 97.7557 520.769 94.2854C517.474 88.187 509.912 85.7457 498.084 86.9628L493.116 87.4735C486.194 89.3927 479.628 101.937 473.418 125.108C471.99 128.474 471.895 131.099 473.131 132.983C462.324 150.994 447.1 173.281 427.46 199.845C426.83 200.702 426.339 201.498 425.988 202.232C403.61 227.575 374.185 248.767 337.714 265.809C320.191 274.049 304.333 278.899 290.138 280.359C277.364 281.674 267.494 279.872 260.531 274.955C253.567 270.039 249.635 264.509 248.734 258.364C247.833 252.221 248.101 245.856 249.538 239.271C254.087 217.88 267.079 195.119 288.516 170.985C309.953 146.852 331.151 129.281 352.11 118.274C361.88 112.843 369.84 109.811 375.991 109.178C383.561 108.4 387.825 111.281 388.784 117.821C389.743 124.361 387.669 131.515 382.564 139.282C370.105 155.853 349.071 172.904 319.463 190.434C303.591 200.114 290.273 205.91 279.507 207.822C278.561 207.919 277.289 208.251 275.691 208.818C274.093 209.385 273.647 210.437 274.352 211.974C275.349 215.492 279.13 216.713 285.695 215.635C303.973 212.548 325.561 204.191 350.458 190.566C375.356 176.94 392.644 162.186 402.324 146.302C408.433 138.834 410.703 129.749 409.135 119.047ZM425.988 202.232C425.448 203.364 425.239 204.35 425.362 205.191C425.565 206.579 425.962 207.644 426.551 208.388C429.498 212.109 432.81 211.768 436.487 207.366C439.727 203.354 442.635 199.686 445.21 196.361C450.093 189.434 454.486 182.292 458.389 174.936C459.575 173.205 460.082 171.745 459.907 170.556C459.734 169.366 458.642 168.473 456.633 167.875C453.977 166.136 451.462 166.999 449.088 170.462C442.474 181.692 434.774 192.282 425.988 202.232Z" fill="black"/>
</svg>
